<svg width="83" height="76" viewBox="0 0 83 76" fill="none" xmlns="http://www.w3.org/2000/svg">
<g clip-path="url(#clip0_1_11)">
<rect x="16.5" y="53.5" width="66" height="22" fill="#FEEDE3" stroke="#5E3135"/>
<path d="M3.5 53.5H16.5V75.5H3.5V53.5Z" fill="#C3AC9D" stroke="#5E3135"/>
<rect x="14.5" y="0.5" width="66" height="47" fill="#FEEDE3" stroke="#5E3135"/>
<path d="M13 0.5H14.5V47.5H13C12.7239 47.5 12.5 47.2761 12.5 47V0.999999C12.5 0.723857 12.7239 0.5 13 0.5Z" fill="#C3AC9D" stroke="#5E3135"/>
<path d="M2.91581 9.78765L12.5 2.04657V46.1629L3.91835 41.542C1.81294 40.4083 0.5 38.2102 0.5 35.8189V14.8443C0.5 12.8803 1.38797 11.0217 2.91581 9.78765Z" fill="#C3AC9D" stroke="#5E3135"/>
<rect x="19.5" y="5.5" width="55" height="37" rx="4.5" fill="#47B0AB" stroke="#5E3135"/>
<rect x="21.5" y="7.5" width="51" height="33" rx="3.5" fill="#6BC9C9" stroke="#5E3135"/>
<path d="M37.1839 53.5L34.7432 47.5H54.8161L57.2568 53.5H37.1839Z" fill="#FEEDE3" stroke="#5E3135"/>
<path d="M29.3297 53.5L26.7583 47.5H34.6703L37.2417 53.5H29.3297Z" fill="#C3AC9D" stroke="#5E3135"/>
<line x1="4" y1="67.5" x2="82" y2="67.5" stroke="#5E3135"/>
<line x1="20.5" y1="57" x2="20.5" y2="65" stroke="#5E3135"/>
<line x1="22.5" y1="57" x2="22.5" y2="65" stroke="#5E3135"/>
<line x1="24.5" y1="57" x2="24.5" y2="65" stroke="#5E3135"/>
<line x1="26.5" y1="57" x2="26.5" y2="65" stroke="#5E3135"/>
<line x1="28.5" y1="57" x2="28.5" y2="65" stroke="#5E3135"/>
<line x1="30.5" y1="57" x2="30.5" y2="65" stroke="#5E3135"/>
<line x1="32.5" y1="57" x2="32.5" y2="65" stroke="#5E3135"/>
<line x1="34.5" y1="57" x2="34.5" y2="65" stroke="#5E3135"/>
<rect x="53.5" y="57.5" width="22" height="7" fill="#C3AC9D" stroke="#5E3135"/>
<line x1="54" y1="59.5" x2="76" y2="59.5" stroke="#5E3135"/>
<line x1="64.5" y1="57" x2="64.5" y2="60" stroke="#5E3135"/>
<line x1="57" y1="62" x2="72" y2="62" stroke="#5E3135" stroke-width="2"/>
<line x1="37.5" y1="68" x2="37.5" y2="76" stroke="#5E3135"/>
<line x1="60.5" y1="68" x2="60.5" y2="76" stroke="#5E3135"/>
<rect x="64.5" y="70.5" width="2" height="2" fill="#5E4A5B" stroke="#5E3135"/>
<rect x="70.5" y="70.5" width="2" height="2" fill="#5E4A5B" stroke="#5E3135"/>
<rect x="76.5" y="70.5" width="2" height="2" fill="#5E4A5B" stroke="#5E3135"/>
<line x1="12" y1="34.5" x2="1" y2="34.5" stroke="#5E3135"/>
<path d="M3.07909 12.7941L9.69303 7.64996C10.0215 7.39452 10.5 7.62856 10.5 8.04464V14.5C10.5 14.7761 10.2761 15 10 15H3C2.72386 15 2.5 14.7761 2.5 14.5V13.9782C2.5 13.5153 2.71371 13.0783 3.07909 12.7941Z" fill="#5E4A5B" stroke="#5E3135"/>
<rect x="29.5" y="12.5" width="35" height="23" fill="#FEEDE3" stroke="#5E3135"/>
<rect x="29.5" y="12.5" width="35" height="4" fill="#C3AC9D" stroke="#5E3135"/>
<circle cx="31.5" cy="14.5" r="0.5" fill="#5E3135"/>
<circle cx="33.5" cy="14.5" r="0.5" fill="#5E3135"/>
<circle cx="35.5" cy="14.5" r="0.5" fill="#5E3135"/>
<line x1="40" y1="14.5" x2="54" y2="14.5" stroke="#5E3135"/>
<line x1="36" y1="19.5" x2="46" y2="19.5" stroke="#5E3135"/>
<line x1="36" y1="22.5" x2="58" y2="22.5" stroke="#5E3135"/>
<line x1="36" y1="25.5" x2="57" y2="25.5" stroke="#5E3135"/>
<line x1="36" y1="28.5" x2="58" y2="28.5" stroke="#5E3135"/>
<line x1="36" y1="31.5" x2="57" y2="31.5" stroke="#5E3135"/>
<path d="M7.5 24.5C7.5 25.3743 7.24611 26.145 6.8609 26.6843C6.475 27.2245 5.98697 27.5 5.5 27.5C5.01303 27.5 4.525 27.2245 4.1391 26.6843C3.75389 26.145 3.5 25.3743 3.5 24.5C3.5 23.6257 3.75389 22.855 4.1391 22.3157C4.525 21.7755 5.01303 21.5 5.5 21.5C5.98697 21.5 6.475 21.7755 6.8609 22.3157C7.24611 22.855 7.5 23.6257 7.5 24.5Z" fill="#5E4A5B" stroke="#5E3135"/>
</g>
<defs>
<clipPath id="clip0_1_11">
<rect width="83" height="76" fill="white"/>
</clipPath>
</defs>
</svg>
