<svg width="575" height="575" viewBox="0 0 575 575" fill="none" xmlns="http://www.w3.org/2000/svg">
<g clip-path="url(#clip0_504_794)">
<path d="M119.043 541.309H85.3516C76.0628 541.309 68.5059 533.752 68.5059 524.463V490.771C68.5059 481.468 60.9635 473.926 51.6602 473.926C42.3568 473.926 34.8145 481.468 34.8145 490.771V524.463C34.8145 552.329 57.4854 575 85.3516 575H119.043C128.346 575 135.889 567.458 135.889 558.154C135.889 548.851 128.346 541.309 119.043 541.309ZM287.5 102.197C265.692 102.197 244.371 108.225 225.842 119.629C217.919 124.505 215.45 134.882 220.326 142.806C225.203 150.729 235.58 153.198 243.502 148.322C256.716 140.188 271.93 135.889 287.5 135.889C333.944 135.889 371.729 173.674 371.729 220.117C371.729 229.421 379.271 236.963 388.574 236.963C397.878 236.963 405.42 229.421 405.42 220.117C405.42 155.096 352.521 102.197 287.5 102.197ZM455.957 33.6914H489.648C498.937 33.6914 506.494 41.2484 506.494 50.5371V84.2285C506.494 93.5318 514.036 101.074 523.34 101.074C532.643 101.074 540.186 93.5318 540.186 84.2285V50.5371C540.186 22.6709 517.515 0 489.648 0H455.957C446.654 0 439.111 7.54238 439.111 16.8457C439.111 26.149 446.654 33.6914 455.957 33.6914ZM119.043 236.963C128.346 236.963 135.889 229.421 135.889 220.117C135.889 136.519 203.902 68.5059 287.5 68.5059C313.435 68.5059 339.02 75.161 361.491 87.7526C369.607 92.2999 379.874 89.4069 384.421 81.2917C388.968 73.1755 386.077 62.9086 377.96 58.3614C350.469 42.9565 319.189 34.8145 287.5 34.8145C185.324 34.8145 102.197 117.941 102.197 220.117C102.197 229.421 109.74 236.963 119.043 236.963ZM51.6602 101.074C60.9635 101.074 68.5059 93.5318 68.5059 84.2285V50.5371C68.5059 41.2484 76.0628 33.6914 85.3516 33.6914H119.043C128.346 33.6914 135.889 26.149 135.889 16.8457C135.889 7.54238 128.346 0 119.043 0H85.3516C57.4854 0 34.8145 22.6709 34.8145 50.5371V84.2285C34.8145 93.5318 42.3568 101.074 51.6602 101.074ZM523.34 473.926C514.036 473.926 506.494 481.468 506.494 490.771V524.463C506.494 533.752 498.937 541.309 489.648 541.309H455.957C446.654 541.309 439.111 548.851 439.111 558.154C439.111 567.458 446.654 575 455.957 575H489.648C517.515 575 540.186 552.329 540.186 524.463V490.771C540.186 481.468 532.643 473.926 523.34 473.926ZM558.154 270.654H472.803V220.117C472.803 192.909 467.036 166.69 455.664 142.188C451.747 133.749 441.73 130.083 433.292 134C424.852 137.917 421.186 147.933 425.104 156.372C434.398 176.397 439.111 197.844 439.111 220.117V270.654H270.654V220.117C270.654 210.828 278.211 203.271 287.5 203.271C296.789 203.271 304.346 210.828 304.346 220.117C304.346 229.421 311.888 236.963 321.191 236.963C330.495 236.963 338.037 229.421 338.037 220.117C338.037 192.251 315.366 169.58 287.5 169.58C259.634 169.58 236.963 192.251 236.963 220.117V270.654H203.271V220.117C203.271 211.984 204.432 203.945 206.719 196.225C209.363 187.305 204.274 177.931 195.354 175.287C186.435 172.645 177.06 177.732 174.416 186.653C171.207 197.482 169.58 208.742 169.58 220.117V270.654H16.8457C7.54238 270.654 0 278.197 0 287.5C0 296.803 7.54238 304.346 16.8457 304.346H102.197V354.883C102.197 382.091 107.964 408.31 119.336 432.812C123.253 441.252 133.27 444.916 141.708 441C150.148 437.083 153.814 427.067 149.896 418.628C140.602 398.602 135.889 377.155 135.889 354.883V304.346H236.963V354.883C236.963 382.749 259.634 405.42 287.5 405.42C315.366 405.42 338.037 382.749 338.037 354.883V304.346H371.757C371.776 310.428 371.803 315.971 371.827 321.123C372.015 359.673 371.942 366.421 368.281 378.776C365.637 387.696 370.726 397.07 379.646 399.714C388.566 402.356 397.94 397.269 400.584 388.349C405.761 370.877 405.71 360.304 405.519 320.96C405.494 315.855 405.468 310.364 405.449 304.347H558.154C567.458 304.347 575 296.804 575 287.501C575 278.198 567.458 270.654 558.154 270.654ZM304.346 354.883C304.346 364.172 296.789 371.729 287.5 371.729C278.211 371.729 270.654 364.172 270.654 354.883V304.346H304.346V354.883ZM287.5 472.803C309.31 472.803 330.631 466.775 349.159 455.372C357.082 450.495 359.551 440.119 354.674 432.196C349.798 424.273 339.42 421.803 331.498 426.68C318.284 434.812 303.07 439.111 287.5 439.111C241.056 439.111 203.271 401.326 203.271 354.883C203.271 345.579 195.729 338.037 186.426 338.037C177.122 338.037 169.58 345.579 169.58 354.883C169.58 419.904 222.479 472.803 287.5 472.803ZM455.957 338.037C446.654 338.037 439.111 345.579 439.111 354.883C439.111 438.481 371.098 506.494 287.5 506.494C261.565 506.494 235.98 499.839 213.508 487.247C205.392 482.699 195.125 485.592 190.578 493.708C186.03 501.826 188.922 512.091 197.04 516.639C224.531 532.043 255.812 540.186 287.5 540.186C389.676 540.186 472.803 457.059 472.803 354.883C472.803 345.579 465.26 338.037 455.957 338.037Z" fill="url(#paint0_linear_504_794)"/>
</g>
<defs>
<linearGradient id="paint0_linear_504_794" x1="287.5" y1="575" x2="287.5" y2="0" gradientUnits="userSpaceOnUse">
<stop stop-color="#165BAA"/>
<stop offset="0.9999" stop-color="#F765A3"/>
<stop offset="1" stop-color="#FFA68D"/>
</linearGradient>
<clipPath id="clip0_504_794">
<rect width="575" height="575" fill="white"/>
</clipPath>
</defs>
</svg>
